HIERARCHY
ROOT Hips
{
	OFFSET 0.000000 0.000000 0.000000
	CHANNELS 6 Xposition Yposition Zposition Zrotation Xrotation Yrotation
	JOINT LeftUpLeg
	{
		OFFSET 3.629690 0.000000 0.000000
		CHANNELS 3 Zrotation Xrotation Yrotation
		JOINT LeftLeg
		{
			OFFSET 0.000000 -17.030560 0.000000
			CHANNELS 3 Zrotation Xrotation Yrotation
			JOINT LeftFoot
			{
				OFFSET 0.000000 -15.712090 0.000000
				CHANNELS 3 Zrotation Xrotation Yrotation
				JOINT LeftToeBase
				{
					OFFSET 0.000000 -1.618809 6.041470
					CHANNELS 3 Zrotation Xrotation Yrotation
					End Site
					{
						OFFSET 0.000000 0.000000 2.952750
					}
				}
			}
		}
	}
	JOINT RightUpLeg
	{
		OFFSET -3.629690 0.000000 0.000000
		CHANNELS 3 Zrotation Xrotation Yrotation
		JOINT RightLeg
		{
			OFFSET 0.000000 -17.030560 0.000000
			CHANNELS 3 Zrotation Xrotation Yrotation
			JOINT RightFoot
			{
				OFFSET 0.000000 -15.712090 0.000000
				CHANNELS 3 Zrotation Xrotation Yrotation
				JOINT RightToeBase
				{
					OFFSET 0.000000 -1.618809 6.041470
					CHANNELS 3 Zrotation Xrotation Yrotation
					End Site
					{
						OFFSET 0.000000 0.000000 2.952750
					}
				}
			}
		}
	}
	JOINT Spine
	{
		OFFSET 0.000000 0.039370 0.000000
		CHANNELS 3 Zrotation Xrotation Yrotation
		JOINT Spine1
		{
			OFFSET 0.000000 7.224080 0.000000
			CHANNELS 3 Zrotation Xrotation Yrotation
			JOINT Neck
			{
				OFFSET 0.000000 10.285650 0.000000
				CHANNELS 3 Zrotation Xrotation Yrotation
				JOINT Head
				{
					OFFSET 0.000000 6.808250 0.000000
					CHANNELS 3 Zrotation Xrotation Yrotation
					End Site
					{
						OFFSET 0.000000 4.527550 0.000000
					}
				}
			}
			JOINT LeftShoulder
			{
				OFFSET 0.000000 10.285650 0.000000
				CHANNELS 3 Zrotation Xrotation Yrotation
				JOINT LeftArm
				{
					OFFSET 7.175730 -0.000031 0.000000
					CHANNELS 3 Zrotation Xrotation Yrotation
					JOINT LeftForeArm
					{
						OFFSET 9.778290 -0.000040 0.000000
						CHANNELS 3 Zrotation Xrotation Yrotation
						JOINT LeftHand
						{
							OFFSET 9.419470 -0.000031 0.000000
							CHANNELS 3 Zrotation Xrotation Yrotation
							JOINT LeftHandThumb
							{
								OFFSET 0.000000 0.000000 0.000000
								CHANNELS 3 Zrotation Xrotation Yrotation
								End Site
								{
									OFFSET 0.000000 0.000000 3.937000
								}
							}
							JOINT L_Wrist_End
							{
								OFFSET 3.937000 -0.000010 0.000000
								CHANNELS 3 Zrotation Xrotation Yrotation
								End Site
								{
									OFFSET 0.000000 0.100000 0.000000
								}
							}
						}
					}
				}
			}
			JOINT RightShoulder
			{
				OFFSET 0.000000 10.285650 0.000000
				CHANNELS 3 Zrotation Xrotation Yrotation
				JOINT RightArm
				{
					OFFSET -7.175730 -0.000031 0.000000
					CHANNELS 3 Zrotation Xrotation Yrotation
					JOINT RightForeArm
					{
						OFFSET -9.778290 -0.000040 0.000000
						CHANNELS 3 Zrotation Xrotation Yrotation
						JOINT RightHand
						{
							OFFSET -9.419470 -0.000031 0.000000
							CHANNELS 3 Zrotation Xrotation Yrotation
							JOINT RightHandThumb
							{
								OFFSET 0.000000 0.000000 0.000000
								CHANNELS 3 Zrotation Xrotation Yrotation
								End Site
								{
									OFFSET 0.000000 0.000000 3.937000
								}
							}
							JOINT R_Wrist_End
							{
								OFFSET -5.393690 -0.000019 0.000000
								CHANNELS 3 Zrotation Xrotation Yrotation
								End Site
								{
									OFFSET 0.000000 0.100000 0.000000
								}
							}
						}
					}
				}
			}
		}
	}
}
MOTION
Frames: 6
Frame Time: 0.038462
3.434000 35.263500 -9.388300 -3.014323 0.661831 -13.441646 5.327892 2.042107 3.897265 -0.000000 15.000294 0.000001 -6.966449 -11.753856 17.968092 0.000000 -10.428398 0.000000 -8.390443 -26.130922 -3.296048 0.000002 43.951099 -0.000001 11.041185 0.374645 -7.595216 -0.000000 -9.863701 0.000002 -5.544521 -17.858358 -2.708288 14.124484 21.398802 -5.486714 4.993007 23.563565 6.758243 -19.795087 -33.361065 12.621995 22.479630 19.533291 -8.345512 -87.941923 24.580483 7.433794 -0.000144 -0.000133 -68.656898 -0.513078 47.702584 24.357380 -0.000001 -0.000001 -0.000000 -0.000003 -0.000000 -0.000002 -9.749808 6.282817 -4.425992 52.139427 17.717362 17.109199 0.000362 -0.000176 127.310901 12.284696 40.075537 -44.107360 0.000000 0.000000 -0.000000 0.000000 0.000001 0.000000 
3.315300 35.348000 -8.913800 -3.837506 0.688750 -14.830921 5.929273 4.813608 5.445067 -0.000000 11.922900 0.000000 -6.775607 -10.893533 18.003511 0.000000 -10.556101 -0.000000 -4.597391 -23.272217 0.062083 -0.000001 34.609501 0.000000 16.371038 -0.515043 -4.341279 -0.000001 -10.264903 0.000002 -4.729433 -19.316699 -2.881101 13.896606 22.426940 -6.350636 3.106095 23.279774 10.286457 -18.362385 -31.735992 11.810780 20.012487 19.171748 -5.863508 -88.325295 24.281809 8.446759 -0.000106 -0.000131 -57.716997 9.586185 33.499667 12.656329 0.000001 0.000001 -0.000000 0.000002 0.000000 0.000000 -9.534549 5.914507 -2.795576 58.959231 22.816095 14.566898 0.000292 -0.000239 111.284395 -3.362685 35.124822 -31.280552 0.000000 -0.000001 -0.000001 0.000000 -0.000002 -0.000001 
3.175900 35.252399 -8.265500 -4.168447 -0.590311 -15.424710 5.681819 7.338870 5.207456 -0.000000 12.082101 0.000000 -6.302304 -11.934528 18.872528 -0.000000 -10.402998 -0.000001 -2.771265 -17.496725 3.770331 -0.000002 24.925403 -0.000000 22.103413 4.271566 -1.102948 0.000000 -9.270300 -0.000000 -2.220443 -19.307789 -0.651846 11.985904 21.219064 -5.222158 -1.244686 24.530085 15.395197 -16.090823 -30.655740 5.537609 12.975493 17.827829 -1.868190 -81.660867 16.140925 7.633711 -0.000060 -0.000225 -53.465997 14.937673 29.094212 7.059415 0.000000 0.000000 -0.000001 0.000002 -0.000001 0.000001 -9.023022 6.572094 0.339045 73.270738 15.527129 3.370838 0.000221 -0.000168 94.419695 -12.107347 25.828190 -24.109586 0.000001 -0.000003 0.000001 0.000001 -0.000001 0.000001 
3.131206 34.894249 -7.691261 -3.214943 -1.963542 -15.078949 4.371733 6.487871 4.071325 0.000000 18.099902 -0.000000 -5.897981 -15.546796 19.501952 0.000000 -10.172364 0.000002 -3.012054 -12.746029 5.340901 0.000001 20.223956 0.000001 10.811358 1.002618 -3.125544 -0.000000 -8.476731 0.000001 2.385247 -18.400487 4.990366 6.302196 18.346446 -1.818370 -4.299688 27.901060 16.781857 -12.890930 -32.671332 -2.411117 5.958453 15.228253 0.503479 -73.814578 -2.400593 3.832715 -0.000113 -0.000138 -55.803144 25.309618 20.790054 5.044537 -0.000003 0.000000 -0.000000 -0.000004 -0.000003 -0.000000 -7.209895 9.848853 3.437532 83.175216 -2.178512 -7.085860 0.000181 -0.000230 80.464498 -21.886228 23.969280 -20.979662 0.000000 0.000003 -0.000002 -0.000001 0.000002 -0.000001 
3.131243 34.664089 -7.477763 -3.622641 -2.799929 -14.435688 4.930067 4.306551 4.157293 -0.000000 25.020077 -0.000000 -6.235326 -17.850455 18.502603 0.000000 -10.253106 -0.000000 -1.571016 -12.655487 10.816497 0.000000 23.227549 -0.000000 9.967643 -2.353818 -9.331266 -0.000000 -6.228982 0.000001 5.702852 -18.594070 9.962773 4.692803 19.299425 1.398448 -4.707436 29.014131 14.614595 -12.918679 -33.130055 -8.191563 2.710259 10.878659 -1.427680 -74.499544 -16.429405 -2.136676 -0.000106 -0.000134 -58.435164 35.410327 7.429046 4.048551 0.000001 -0.000000 0.000001 -0.000000 0.000001 0.000000 -5.940992 12.121387 3.547633 81.673626 -6.003413 -15.852644 0.000181 -0.000129 79.561179 -29.956202 -0.667806 -22.664595 0.000003 0.000000 0.000000 0.000000 -0.000000 0.000000 
3.494777 34.627110 -7.322206 -2.133781 -4.422953 -12.048676 3.269653 5.945229 5.667238 -0.000000 23.580217 0.000000 -5.105989 -16.909919 15.396107 -0.000000 -10.199571 0.000001 -4.403446 -13.803934 7.542519 -0.000001 28.712988 -0.000000 10.429474 -2.967702 -8.181773 -0.000000 -6.930099 -0.000001 3.844213 -19.675675 8.538922 5.100186 23.271107 0.718363 -0.864725 25.344803 8.617101 -15.391905 -30.482393 -2.361588 8.638344 9.997216 -7.542878 -77.865823 -14.516893 0.599351 -0.000128 -0.000136 -64.024766 38.331739 10.580784 3.094985 0.000001 0.000003 -0.000000 0.000000 0.000001 0.000003 -7.397435 13.194827 -3.192481 75.646435 6.867468 -11.202245 0.000204 -0.000267 87.984762 -25.220660 15.966421 -19.492300 0.000001 -0.000001 -0.000002 0.000002 -0.000001 0.000002 
